<svg width="16" height="16" viewBox="0 0 16 16" fill="none" xmlns="http://www.w3.org/2000/svg">
<rect width="16" height="16" fill="black" fill-opacity="0"/>
<path fill-rule="evenodd" clip-rule="evenodd" d="M6 9C8.9729 9 11.4409 11.1621 11.917 14H10.8999C10.4368 11.7178 8.41895 10 6 10C3.58105 10 1.56323 11.7178 1.1001 14H0.0830078C0.559082 11.1621 3.0271 9 6 9ZM3 5C3 3.34277 4.34326 2 6 2C7.65674 2 9 3.34277 9 5C9 6.65723 7.65674 8 6 8C4.34326 8 3 6.65723 3 5ZM4.97461 3.2832C5.27441 3.10352 5.62524 3 6 3C7.10449 3 8 3.89551 8 5C8 5.68164 7.65942 6.2832 7.13916 6.64355C6.81592 6.86816 6.42334 7 6 7C4.89551 7 4 6.10449 4 5C4 4.27051 4.39087 3.63184 4.97461 3.2832ZM14.8999 14C14.5022 12.04 12.9587 10.4971 10.999 10.0996C10.5901 9.68262 10.1289 9.31641 9.62671 9.01172C9.70386 9.00684 9.78125 9.00391 9.85913 9.00195L10 9C12.9729 9 15.4409 11.1621 15.917 14H14.8999ZM9.44678 7.94922C9.24829 7.91211 9.05688 7.85547 8.87427 7.78125C9.11816 7.5293 9.3291 7.24609 9.50049 6.9375C9.66016 6.97852 9.82764 7 10 7C10.7029 7 11.3213 6.63672 11.678 6.08887C11.8816 5.77539 12 5.40137 12 5C12 3.89551 11.1045 3 10 3C9.82739 3 9.65991 3.02148 9.50024 3.0625C9.32886 2.75391 9.11816 2.4707 8.87427 2.21875C9.22192 2.07812 9.60181 2 10 2C11.6567 2 13 3.34277 13 5C13 6.65723 11.6567 8 10 8C9.81104 8 9.62598 7.98242 9.44678 7.94922Z" fill="#5F6166" fill-opacity="0.64"/>
</svg>
